# Tiled2Unity generated file. Do not modify by hand.
# Wavefront file for 'Angry-Medieval-War_mesh_0013.obj'

# Vertices (Count = 48)
v -2880 -1792 0
v -2950 -1792 0
v -2950 -1722 0
v -2880 -1722 0
v -3008 -1792 0
v -3078 -1792 0
v -3078 -1722 0
v -3008 -1722 0
v -2880 -1888 0
v -2950 -1888 0
v -2950 -1818 0
v -2880 -1818 0
v -3008 -1888 0
v -3078 -1888 0
v -3078 -1818 0
v -3008 -1818 0
v -2848 -1984 0
v -2918 -1984 0
v -2918 -1914 0
v -2848 -1914 0
v -2880 -1984 0
v -2950 -1984 0
v -2950 -1914 0
v -2880 -1914 0
v -3008 -1984 0
v -3078 -1984 0
v -3078 -1914 0
v -3008 -1914 0
v -3040 -1984 0
v -3110 -1984 0
v -3110 -1914 0
v -3040 -1914 0
v -2848 -2016 0
v -2918 -2016 0
v -2918 -1946 0
v -2848 -1946 0
v -2880 -2016 0
v -2950 -2016 0
v -2950 -1946 0
v -2880 -1946 0
v -3008 -2016 0
v -3078 -2016 0
v -3078 -1946 0
v -3008 -1946 0
v -3040 -2016 0
v -3110 -2016 0
v -3110 -1946 0
v -3040 -1946 0

# Texture cooridinates (Count = 4)
vt 0 0
vt 1 0
vt 1 1
vt 0 1

# Normal
vn 0 0 -1

# Mesh description
g Angry-Medieval-War_mesh_0013

# Faces
f 1/1/1 2/2/1 3/3/1 4/4/1
f 5/1/1 6/2/1 7/3/1 8/4/1
f 9/1/1 10/2/1 11/3/1 12/4/1
f 13/1/1 14/2/1 15/3/1 16/4/1
f 17/1/1 18/2/1 19/3/1 20/4/1
f 21/1/1 22/2/1 23/3/1 24/4/1
f 25/1/1 26/2/1 27/3/1 28/4/1
f 29/1/1 30/2/1 31/3/1 32/4/1
f 33/1/1 34/2/1 35/3/1 36/4/1
f 37/1/1 38/2/1 39/3/1 40/4/1
f 41/1/1 42/2/1 43/3/1 44/4/1
f 45/1/1 46/2/1 47/3/1 48/4/1

