# Tiled2Unity generated file. Do not modify by hand.
# Wavefront file for 'Angry-Medieval-War_mesh_0017.obj'

# Vertices (Count = 16)
v -2816 -1888 0
v -2886 -1888 0
v -2886 -1818 0
v -2816 -1818 0
v -3072 -1888 0
v -3142 -1888 0
v -3142 -1818 0
v -3072 -1818 0
v -2784 -2016 0
v -2854 -2016 0
v -2854 -1946 0
v -2784 -1946 0
v -3104 -2016 0
v -3174 -2016 0
v -3174 -1946 0
v -3104 -1946 0

# Texture cooridinates (Count = 4)
vt 0 0
vt 1 0
vt 1 1
vt 0 1

# Normal
vn 0 0 -1

# Mesh description
g Angry-Medieval-War_mesh_0017

# Faces
f 1/1/1 2/2/1 3/3/1 4/4/1
f 5/1/1 6/2/1 7/3/1 8/4/1
f 9/1/1 10/2/1 11/3/1 12/4/1
f 13/1/1 14/2/1 15/3/1 16/4/1

